<?xml version="1.0" encoding="UTF-8" standalone="no"?>
<!DOCTYPE svg PUBLIC "-//W3C//DTD SVG 1.1//EN"
 "http://www.w3.org/Graphics/SVG/1.1/DTD/svg11.dtd">
<!-- Generated by graphviz version 2.36.0 (20140111.2315)
 -->
<!-- Title: Graphical Class Hierarchy Pages: 1 -->
<svg width="246pt" height="214pt"
 viewBox="0.00 0.00 246.00 214.00" xmlns="http://www.w3.org/2000/svg" xmlns:xlink="http://www.w3.org/1999/xlink">
<g id="graph0" class="graph" transform="scale(1 1) rotate(0) translate(4 210)">
<title>Graphical Class Hierarchy</title>
<!-- Node1 -->
<g id="node1" class="node"><title>Node1</title>
<polygon fill="none" stroke="#bfbfbf" points="0,-99 0,-117 56,-117 56,-99 0,-99"/>
<text text-anchor="middle" x="28" y="-105.8" font-family="Helvetica,sans-Serif" font-size="9.00">TestCase</text>
</g>
<!-- Node2 -->
<g id="node2" class="node"><title>Node2</title>
<g id="a_node2"><a xlink:href="d5/db8/classorg_1_1lightvoting_1_1CMainTest.html" target="_top" xlink:title="Unit test for simple CMain. ">
<polygon fill="none" stroke="black" points="104.5,-188 104.5,-206 225.5,-206 225.5,-188 104.5,-188"/>
<text text-anchor="middle" x="165" y="-194.8" font-family="Helvetica,sans-Serif" font-size="9.00">org.lightvoting.CMainTest</text>
</a>
</g>
</g>
<!-- Node1&#45;&gt;Node2 -->
<g id="edge1" class="edge"><title>Node1&#45;&gt;Node2</title>
<path fill="none" stroke="midnightblue" d="M40.4746,-125.775C51.7203,-141.778 70.3009,-164.756 92,-178 98.8416,-182.176 106.592,-185.443 114.411,-187.998"/>
<polygon fill="midnightblue" stroke="midnightblue" points="43.2343,-123.608 34.7327,-117.285 37.4359,-127.53 43.2343,-123.608"/>
</g>
<!-- Node3 -->
<g id="node3" class="node"><title>Node3</title>
<g id="a_node3"><a xlink:href="dd/d6e/classorg_1_1lightvoting_1_1simulation_1_1agent_1_1CVotingAgentGeneratorTest.html" target="_top" xlink:title="Unit test for CVotingAgentGenerator. ">
<polygon fill="none" stroke="black" points="92,-141 92,-169 238,-169 238,-141 92,-141"/>
<text text-anchor="start" x="100" y="-157.8" font-family="Helvetica,sans-Serif" font-size="9.00">org.lightvoting.simulation.agent.</text>
<text text-anchor="middle" x="165" y="-147.8" font-family="Helvetica,sans-Serif" font-size="9.00">CVotingAgentGeneratorTest</text>
</a>
</g>
</g>
<!-- Node1&#45;&gt;Node3 -->
<g id="edge2" class="edge"><title>Node1&#45;&gt;Node3</title>
<path fill="none" stroke="midnightblue" d="M62.6669,-120.491C72.1357,-123.949 82.4542,-127.667 92,-131 101.454,-134.301 111.641,-137.757 121.291,-140.985"/>
<polygon fill="midnightblue" stroke="midnightblue" points="63.7687,-117.167 53.1751,-117.007 61.3571,-123.738 63.7687,-117.167"/>
</g>
<!-- Node4 -->
<g id="node4" class="node"><title>Node4</title>
<g id="a_node4"><a xlink:href="d5/d0d/classorg_1_1lightvoting_1_1simulation_1_1agent_1_1CVotingAgentTest.html" target="_top" xlink:title="Unit test for CVotingAgent. ">
<polygon fill="none" stroke="black" points="92,-94 92,-122 238,-122 238,-94 92,-94"/>
<text text-anchor="start" x="100" y="-110.8" font-family="Helvetica,sans-Serif" font-size="9.00">org.lightvoting.simulation.agent.</text>
<text text-anchor="middle" x="165" y="-100.8" font-family="Helvetica,sans-Serif" font-size="9.00">CVotingAgentTest</text>
</a>
</g>
</g>
<!-- Node1&#45;&gt;Node4 -->
<g id="edge3" class="edge"><title>Node1&#45;&gt;Node4</title>
<path fill="none" stroke="midnightblue" d="M66.3336,-108C74.2989,-108 82.9696,-108 91.7481,-108"/>
<polygon fill="midnightblue" stroke="midnightblue" points="66.3193,-104.5 56.3193,-108 66.3192,-111.5 66.3193,-104.5"/>
</g>
<!-- Node5 -->
<g id="node5" class="node"><title>Node5</title>
<g id="a_node5"><a xlink:href="d1/d6d/classorg_1_1lightvoting_1_1simulation_1_1rule_1_1CMinimaxApprovalTest.html" target="_top" xlink:title="Created by sophie on 09.02.17. ">
<polygon fill="none" stroke="black" points="95.5,-47 95.5,-75 234.5,-75 234.5,-47 95.5,-47"/>
<text text-anchor="start" x="103.5" y="-63.8" font-family="Helvetica,sans-Serif" font-size="9.00">org.lightvoting.simulation.rule.</text>
<text text-anchor="middle" x="165" y="-53.8" font-family="Helvetica,sans-Serif" font-size="9.00">CMinimaxApprovalTest</text>
</a>
</g>
</g>
<!-- Node1&#45;&gt;Node5 -->
<g id="edge4" class="edge"><title>Node1&#45;&gt;Node5</title>
<path fill="none" stroke="midnightblue" d="M62.6669,-95.5094C72.1357,-92.0508 82.4542,-88.3327 92,-85 101.454,-81.6993 111.641,-78.2431 121.291,-75.0147"/>
<polygon fill="midnightblue" stroke="midnightblue" points="61.3571,-92.2618 53.1751,-98.9927 63.7687,-98.8333 61.3571,-92.2618"/>
</g>
<!-- Node6 -->
<g id="node6" class="node"><title>Node6</title>
<g id="a_node6"><a xlink:href="d0/dd0/classorg_1_1lightvoting_1_1simulation_1_1rule_1_1CMinisumApprovalTest.html" target="_top" xlink:title="Created by sophie on 01.02.17. ">
<polygon fill="none" stroke="black" points="95.5,-0 95.5,-28 234.5,-28 234.5,-0 95.5,-0"/>
<text text-anchor="start" x="103.5" y="-16.8" font-family="Helvetica,sans-Serif" font-size="9.00">org.lightvoting.simulation.rule.</text>
<text text-anchor="middle" x="165" y="-6.8" font-family="Helvetica,sans-Serif" font-size="9.00">CMinisumApprovalTest</text>
</a>
</g>
</g>
<!-- Node1&#45;&gt;Node6 -->
<g id="edge5" class="edge"><title>Node1&#45;&gt;Node6</title>
<path fill="none" stroke="midnightblue" d="M40.6749,-90.5416C52.0604,-74.7601 70.734,-51.9288 92,-38 97.8418,-34.1737 104.351,-30.9031 111,-28.122"/>
<polygon fill="midnightblue" stroke="midnightblue" points="37.6968,-88.6934 34.8489,-98.8984 43.4391,-92.6967 37.6968,-88.6934"/>
</g>
</g>
</svg>
