<?xml version="1.0" encoding="UTF-8" standalone="no"?>
<!DOCTYPE svg PUBLIC "-//W3C//DTD SVG 1.1//EN"
 "http://www.w3.org/Graphics/SVG/1.1/DTD/svg11.dtd">
<!-- Generated by graphviz version 2.36.0 (20140111.2315)
 -->
<!-- Title: Graphical Class Hierarchy Pages: 1 -->
<svg width="324pt" height="83pt"
 viewBox="0.00 0.00 324.00 83.00" xmlns="http://www.w3.org/2000/svg" xmlns:xlink="http://www.w3.org/1999/xlink">
<g id="graph0" class="graph" transform="scale(1 1) rotate(0) translate(4 79)">
<title>Graphical Class Hierarchy</title>
<!-- Node1 -->
<g id="node1" class="node"><title>Node1</title>
<polygon fill="none" stroke="#bfbfbf" points="0.5,-28 0.5,-46 105.5,-46 105.5,-28 0.5,-28"/>
<text text-anchor="middle" x="53" y="-34.8" font-family="Helvetica,sans-Serif" font-size="9.00">IBaseAgentGenerator</text>
</g>
<!-- Node2 -->
<g id="node2" class="node"><title>Node2</title>
<g id="a_node2"><a xlink:href="d1/d21/classorg_1_1lightvoting_1_1simulation_1_1agent_1_1CChairAgent_1_1CChairAgentGenerator.html" target="_top" xlink:title="Class CChairAgentGenerator. ">
<polygon fill="none" stroke="black" points="145.5,-47 145.5,-75 312.5,-75 312.5,-47 145.5,-47"/>
<text text-anchor="start" x="153.5" y="-63.8" font-family="Helvetica,sans-Serif" font-size="9.00">org.lightvoting.simulation.agent.</text>
<text text-anchor="middle" x="229" y="-53.8" font-family="Helvetica,sans-Serif" font-size="9.00">CChairAgent.CChairAgentGenerator</text>
</a>
</g>
</g>
<!-- Node1&#45;&gt;Node2 -->
<g id="edge1" class="edge"><title>Node1&#45;&gt;Node2</title>
<path fill="none" stroke="midnightblue" d="M115.854,-45.5315C125.36,-46.8427 135.304,-48.2143 145.176,-49.576"/>
<polygon fill="midnightblue" stroke="midnightblue" points="116.119,-42.0351 105.735,-44.1358 115.163,-48.9694 116.119,-42.0351"/>
</g>
<!-- Node3 -->
<g id="node3" class="node"><title>Node3</title>
<g id="a_node3"><a xlink:href="dc/d7f/classorg_1_1lightvoting_1_1simulation_1_1agent_1_1CVotingAgent_1_1CVotingAgentGenerator.html" target="_top" xlink:title="Class CVotingAgentGenerator. ">
<polygon fill="none" stroke="black" points="142,-0 142,-28 316,-28 316,-0 142,-0"/>
<text text-anchor="start" x="150" y="-16.8" font-family="Helvetica,sans-Serif" font-size="9.00">org.lightvoting.simulation.agent.</text>
<text text-anchor="middle" x="229" y="-6.8" font-family="Helvetica,sans-Serif" font-size="9.00">CVotingAgent.CVotingAgentGenerator</text>
</a>
</g>
</g>
<!-- Node1&#45;&gt;Node3 -->
<g id="edge2" class="edge"><title>Node1&#45;&gt;Node3</title>
<path fill="none" stroke="midnightblue" d="M115.858,-28.8233C124.319,-27.7049 133.127,-26.5407 141.922,-25.3781"/>
<polygon fill="midnightblue" stroke="midnightblue" points="115.19,-25.3812 105.735,-30.1615 116.107,-32.3208 115.19,-25.3812"/>
</g>
</g>
</svg>
