<?xml version="1.0" encoding="UTF-8" standalone="no"?>
<!DOCTYPE svg PUBLIC "-//W3C//DTD SVG 1.1//EN"
 "http://www.w3.org/Graphics/SVG/1.1/DTD/svg11.dtd">
<!-- Generated by graphviz version 2.36.0 (20140111.2315)
 -->
<!-- Title: Graphical Class Hierarchy Pages: 1 -->
<svg width="254pt" height="83pt"
 viewBox="0.00 0.00 254.00 83.00" xmlns="http://www.w3.org/2000/svg" xmlns:xlink="http://www.w3.org/1999/xlink">
<g id="graph0" class="graph" transform="scale(1 1) rotate(0) translate(4 79)">
<title>Graphical Class Hierarchy</title>
<!-- Node1 -->
<g id="node1" class="node"><title>Node1</title>
<polygon fill="none" stroke="#bfbfbf" points="0,-28 0,-46 64,-46 64,-28 0,-28"/>
<text text-anchor="middle" x="32" y="-34.8" font-family="Helvetica,sans-Serif" font-size="9.00">IBaseAgent</text>
</g>
<!-- Node2 -->
<g id="node2" class="node"><title>Node2</title>
<g id="a_node2"><a xlink:href="d6/d6a/classorg_1_1lightvoting_1_1simulation_1_1agent_1_1CChairAgent.html" target="_top" xlink:title="Created by sophie on 21.02.17. ">
<polygon fill="none" stroke="black" points="100,-47 100,-75 246,-75 246,-47 100,-47"/>
<text text-anchor="start" x="108" y="-63.8" font-family="Helvetica,sans-Serif" font-size="9.00">org.lightvoting.simulation.agent.</text>
<text text-anchor="middle" x="173" y="-53.8" font-family="Helvetica,sans-Serif" font-size="9.00">CChairAgent</text>
</a>
</g>
</g>
<!-- Node1&#45;&gt;Node2 -->
<g id="edge1" class="edge"><title>Node1&#45;&gt;Node2</title>
<path fill="none" stroke="midnightblue" d="M74.0942,-44.0954C82.2067,-45.4961 90.943,-47.0045 99.7383,-48.5232"/>
<polygon fill="midnightblue" stroke="midnightblue" points="74.644,-40.6386 64.1943,-42.3861 73.453,-47.5366 74.644,-40.6386"/>
</g>
<!-- Node3 -->
<g id="node3" class="node"><title>Node3</title>
<g id="a_node3"><a xlink:href="d3/dc2/classorg_1_1lightvoting_1_1simulation_1_1agent_1_1CVotingAgent.html" target="_top" xlink:title="BDI agent with voting capabilities. ">
<polygon fill="none" stroke="black" points="100,-0 100,-28 246,-28 246,-0 100,-0"/>
<text text-anchor="start" x="108" y="-16.8" font-family="Helvetica,sans-Serif" font-size="9.00">org.lightvoting.simulation.agent.</text>
<text text-anchor="middle" x="173" y="-6.8" font-family="Helvetica,sans-Serif" font-size="9.00">CVotingAgent</text>
</a>
</g>
</g>
<!-- Node1&#45;&gt;Node3 -->
<g id="edge2" class="edge"><title>Node1&#45;&gt;Node3</title>
<path fill="none" stroke="midnightblue" d="M74.0942,-30.2002C82.2067,-28.8579 90.943,-27.4123 99.7383,-25.957"/>
<polygon fill="midnightblue" stroke="midnightblue" points="73.4888,-26.7527 64.1943,-31.8384 74.6316,-33.6588 73.4888,-26.7527"/>
</g>
</g>
</svg>
